<svg id="Layer_1" data-name="Layer 1" xmlns="http://www.w3.org/2000/svg" viewBox="0 0 512 512"><defs><style>.cls-1{fill:#ff5722;}</style></defs><path class="cls-1" d="M256,0C397.38,0,512,114.62,512,256S397.38,512,256,512,0,397.38,0,256,114.62,0,256,0ZM403,166.49a9.3,9.3,0,0,0-7.33-3.58H162.91c-.21,0-.42.05-.63.06l-9-30.25a9.31,9.31,0,0,0-9-7h-2.51A18.59,18.59,0,0,0,107.1,134c0,.31,0,.63,0,.95h0a18.6,18.6,0,0,0,31.26,13.65L181.8,295.5a9.3,9.3,0,0,0,6.29,6.62L173.2,354.23a9.32,9.32,0,0,0,8.33,13.48h18.61a18.61,18.61,0,0,0-18.61,18.62h0a18.25,18.25,0,0,0,.1,2c0,.09,0,.19,0,.28.07.56.16,1.11.27,1.66a.14.14,0,0,1,0,.06,18.61,18.61,0,1,0,22.16-22.15l-.08,0c-.54-.11-1.09-.2-1.65-.26l-.28-.05c-.65-.06-1.3-.1-2-.1H330.47a18.62,18.62,0,0,0-18.62,18.62h0a18.25,18.25,0,0,0,.1,2c0,.09,0,.19,0,.28.07.56.16,1.11.27,1.66,0,0,0,0,0,.06a18.61,18.61,0,1,0,22.15-22.15h-.07a15.11,15.11,0,0,0-1.66-.27l-.28-.05c-.64-.06-1.29-.1-2-.1h18.62a9.31,9.31,0,1,0,0-18.62H196.59l10.7-46.54H190.84a5.79,5.79,0,0,1-.72,0l.72,0H358.41a9.64,9.64,0,0,0,5.4-1.75,9.3,9.3,0,0,0,3.62-5.3l37.23-121A9.27,9.27,0,0,0,403,166.49ZM195.49,275.1,189.83,256h5.66Zm0-28.41h-8.41l-8.28-27.93h16.69Zm0-37.24H176l-8.26-27.92h27.71Zm37.24,74.48H204.8V256h27.93Zm0-37.24H204.8V218.76h27.93Zm0-37.24H204.8V181.53h27.93ZM270,283.93H242V256H270Zm0-37.24H242V218.76H270Zm0-37.24H242V181.53H270Zm37.24,74.48H279.27V256H307.2Zm0-37.24H279.27V218.76H307.2Zm0-37.24H279.27V181.53H307.2Zm37.24,74.48H316.51V256h27.93Zm0-37.24H316.51V218.76h27.93Zm0-37.24H316.51V181.53h27.93Zm9.3,67.58V256h6.61Zm9.52-30.34h-9.52V218.76H372ZM375,209.46h-21.2V181.53h30Z"/></svg>